<svg xmlns="http://www.w3.org/2000/svg" width="430" height="430" viewBox="285 351.5 430 430">
  <defs>
    <style>
      .cls-1 {
        fill: #c2b8ff;
        fill-rule: evenodd;
      }
    </style>
  </defs>
  <path id="Forma_1" data-name="Forma 1" class="cls-1" d="M668.517,752.616c-0.038,4.886-2.665,8.7-4.7,11.749-3.74,5.614-8.333,9.9-15.105,12.419-3.751,1.395-7.748,1.678-12.755,1.679-15.278,0-25.411-3.982-34.574-10.07-20.811-13.828-37.993-32.738-52.7-52.7l-1.679-1.343c-1.33-1.8-2.368-3.561-3.692-5.371l-1.343-1.007c-6.97-9.51-14.587-18.276-21.482-27.86-1.185-1.647-3.162-3.049-4.364-4.7-6.624-9.1-13.867-17.428-20.476-26.517-0.687-.945-2-1.743-2.685-2.686-1.659-2.265-3.065-4.419-4.7-6.713-0.667-.936-1.9-1.852-2.349-3.021-2.844-7.4,1.608-14.322,6.713-16.112,3.489-1.223,13.579-.336,18.126-0.336,13.481,0,26.58.187,35.581-4.364,8.905-4.5,15.48-12.717,18.8-22.825,1.443-4.394.892-12.531-.335-16.448-3.7-11.8-9.242-18.346-20.812-22.154-11.525-3.794-27.879.035-36.252,3.692-15.57,6.8-23.647,18.4-29.2,35.246-1.624,4.923-1.433,10.524-2.685,15.776v5.706c-1.132,4.756-.336,11.735-0.336,17.119v33.9c0,27.871,3.661,59.084-12.755,70.826-7.187,5.141-20.137,7.409-30.882,4.028-2.647-.833-7.725-1.525-8.727-3.692V611.3c0.767-1.154-.061-3.4.335-5.035,0.744-3.059.177-6.886,1.007-10.07,2.12-8.134,3.025-16.278,6.042-23.5,13.526-32.358,33.471-49.8,69.148-60.085,3.129-.9,6.414-0.951,9.4-1.678H512.1c7.522-1.811,23.376-1.845,30.881,0l5.371,0.335c5.8,1.487,11.879,2.145,17.455,4.028,23.184,7.831,37.711,18.137,46.993,39.945,5.31,12.473,7.857,34.3,2.35,49.008-6.509,17.386-18.635,31.981-35.245,39.273a122.672,122.672,0,0,1-14.77,5.035c-2.269.662-6.137,0.448-7.72,1.678a28.956,28.956,0,0,1,3.357,4.364c0.883,1.2,2.474,2.161,3.357,3.357,2.046,2.771,4,5.283,6.042,8.056,1.4,1.9,3.633,3.472,5.035,5.37,6.093,8.255,13.043,15.57,19.133,23.833,1.4,1.9,3.634,3.472,5.035,5.371,2.563,3.474,5.159,6.594,7.72,10.07,0.881,1.2,2.474,2.161,3.357,3.356a89.592,89.592,0,0,0,19.469,19.8c2.031,1.476,3.957,3.582,6.042,5.035,6.88,4.795,14.285,7.857,22.825,11.077C661.611,751,664.963,752.351,668.517,752.616Z"/>
  <path id="Forma_2" data-name="Forma 2" class="cls-1" d="M420.3,392.471c-1.457-3.716.581-12.676,2.13-15.415,0.97-1.715,3.265-4.032,3.152-6.095l0.326-.145c-0.049-.109-0.1-0.218-0.145-0.327l-0.327.145c-1.972-2.191-6.115-2.559-8.815-3.113a44.365,44.365,0,0,0-15.487-.534c-11.8,1.763-22.377,11.328-26.392,18.007a37.824,37.824,0,0,0-4.309,10.52c-0.521,2.461.453,5.032-2.534,6.6-2.1-.538-4.018,1.274-6.636,1.781-7.061,1.367-12.853,8.339-15.587,12.414-5.576,8.311-6.645,14.024-4.807,25.21a18.809,18.809,0,0,0,3.015,7.651c1.918,2.464,2.507,4.716,4.5,6.6a45.859,45.859,0,0,0,8.673,6.305c1.865,1.063,4.271,1.14,6.131,2.353l-1.306.581c-1.688-.925-5.287-1-7.291-1.446-3.256-.726-9.012-3.98-11.718-6.122a38.122,38.122,0,0,1-5.045-5.183c-11.719-13.786-5.261-33.986,2.221-42.435,3.211-3.626,7.318-5.753,11.6-9.075,3.164-2.455,11.011-3.028,12.364-4.723,1.672-1.548,1.114-4.135,1.556-6.166q0.707-1.488,1.412-2.975c1-4.1,3.367-8.054,5.8-11.574,2.168-3.143,5.911-6.151,9.025-8.71l3.77-2.07c10.594-8.279,26.975-6.753,34.923-4.991,3.052,0.676,7.6,3.339,10.666,4.635,18.633-13.951,38.153-12.047,51.175-.106,3.886,3.564,8.66,9.247,9.839,15.952l1.017,2.284a63.744,63.744,0,0,1,.622,7.543c0.041,6.743-3.286,16.082-7.349,21.258a53.53,53.53,0,0,1-5.545,5.988c-1.023.952-2.948,1.665-3.008,2.9l2.469,5.547c-0.27,1.4,1.545,4.345,2.289,6.019q2.6,6.273,5.195,12.546c6.582,14.784,13.191,30.575,20.014,45.83l-0.653.29c-0.3.424-4.7,1.731-6.164,1.963-3.731.591-8.671,2.155-12.438,2.8l-5.693,2.143c-8.624,1.56-19.04,6.132-28.283,10.246-4.244,1.889-9.954,3.787-13.234,6.283l-12.762,6.465c-1.567,1.211-4.057,2.846-5.619,4.065l-2.61,1.163a17.878,17.878,0,0,1-3.807,2.867c-0.1-.217-0.193-0.435-0.29-0.652l0.326-.146c2.271-4.668,8.805-7.768,13.158-11.723,3.761-3.418,9.36-6.224,13.7-9.62l7.686-3.813c2.662-2.036,9.031-5.17,11.929-5.7l15.156-6.357c2.894-.524,6.031-2.368,9.246-2.944A40.4,40.4,0,0,0,496.6,484.8c-0.162-1.842-1.635-4.55-2.579-6.672q-3.124-7.014-6.248-14.031-10.242-23-20.485-46.012a4.636,4.636,0,0,1,2.32-1.815c1.08-1.79,5.074-3.616,6.633-5.3,4.093-4.418,7.748-10.467,8.876-16.073a31.563,31.563,0,0,0,.538-8.451c-0.562-5.907-5.174-12.437-8.424-15.408-7.471-6.829-16.485-9.165-27.17-7.454-12.424,1.989-21.5,12.56-25.665,19.638C423.009,385.571,422.425,390.839,420.3,392.471Z"/>
</svg>
